<svg width="689" height="109" viewBox="0 0 689 109" fill="none" xmlns="http://www.w3.org/2000/svg">
<path d="M54.6826 78.8C61.1326 78.8 66.3826 76.7 70.2826 73.1C72.0826 71.45 74.7826 71.15 76.8826 72.5L93.8326 83.75C96.5326 85.55 97.1326 89.3 94.8826 91.7C85.2826 102.35 71.1826 108.8 54.6826 108.8C23.1826 108.8 0.682617 85.4 0.682617 54.5C0.682617 23.45 23.1826 0.0499911 54.6826 0.0499911C71.1826 0.0499911 85.2826 6.65 94.8826 17.3C97.1326 19.7 96.5326 23.45 93.8326 25.25L76.8826 36.5C74.7826 37.85 72.0826 37.55 70.2826 35.9C66.3826 32.3 61.1326 30.2 54.6826 30.2C40.2826 30.2 31.7326 40.7 31.7326 54.5C31.7326 68.15 40.2826 78.8 54.6826 78.8ZM172.183 107C169.633 107 167.383 105.5 166.183 103.25L151.033 73.1H139.633V100.25C139.633 104 136.633 107 132.883 107H115.183C111.583 107 108.583 104 108.583 100.25V8.6C108.583 5 111.583 1.99999 115.183 1.99999H151.633C180.583 1.99999 194.683 16.55 194.683 39.65C194.683 53 189.133 62.15 179.533 67.4L198.583 101C200.233 103.7 198.283 107 195.133 107H172.183ZM139.633 30.2V48.95H151.633C158.533 48.95 163.183 46.4 163.183 39.65C163.183 33.35 159.733 30.2 151.633 30.2H139.633ZM210.976 8.6C210.976 5 213.976 1.99999 217.576 1.99999H235.276C239.026 1.99999 242.026 5 242.026 8.6V100.25C242.026 104 239.026 107 235.276 107H217.576C213.976 107 210.976 104 210.976 100.25V8.6ZM303.733 42.5C329.383 49.7 338.083 58.25 338.083 74.9C338.083 93.05 322.333 108.8 296.833 108.8C279.583 108.8 260.833 102.95 254.233 86.3C253.033 83.45 254.533 80.15 257.533 79.25L274.333 74C276.733 73.25 279.133 74.3 280.483 76.4C282.883 80.15 288.133 83 295.483 83C303.583 83 307.033 79.25 307.033 75.35C307.033 69.05 299.233 68.45 288.733 65.9C268.333 60.95 256.783 52.7 256.783 33.5C256.783 13.4 273.583 0.0499911 296.683 0.0499911C313.033 0.0499911 327.583 7.54999 333.433 21.95C334.633 24.95 332.833 28.25 329.683 29.15L313.033 33.2C310.783 33.65 308.533 32.9 307.333 31.1C305.533 28.25 302.233 26.15 296.983 26.15C290.833 26.15 286.483 28.7 286.483 33.5C286.483 39.5 295.633 40.25 303.733 42.5ZM417.674 1.99999C421.274 1.99999 424.274 5 424.274 8.6V23.6C424.274 27.2 421.274 30.2 417.674 30.2H399.674V100.25C399.674 104 396.674 107 393.074 107H375.374C371.624 107 368.624 104 368.624 100.25V30.2H350.774C347.174 30.2 344.174 27.2 344.174 23.6V8.6C344.174 5 347.174 1.99999 350.774 1.99999H417.674ZM436.269 8.6C436.269 5 439.269 1.99999 442.869 1.99999H460.569C464.319 1.99999 467.319 5 467.319 8.6V100.25C467.319 104 464.319 107 460.569 107H442.869C439.269 107 436.269 104 436.269 100.25V8.6ZM556.476 107C553.476 107 550.776 105.05 550.026 102.05L546.726 90.05H514.626L511.326 102.05C510.576 105.05 507.876 107 504.876 107H483.726C480.126 107 477.576 103.4 478.776 99.95L509.676 7.39999C510.726 4.24999 513.876 1.99999 517.326 1.99999H544.026C547.476 1.99999 550.626 4.24999 551.676 7.39999L582.576 99.95C583.776 103.4 581.226 107 577.476 107H556.476ZM520.776 68H540.576L530.676 32.15L520.776 68ZM657.632 8.6C657.632 5 660.632 1.99999 664.382 1.99999H681.932C685.532 1.99999 688.532 5 688.532 8.6V100.25C688.532 104 685.532 107 681.932 107H665.132C662.432 107 659.882 105.65 658.382 103.25L625.082 51.05V100.25C625.082 104 622.082 107 618.482 107H600.782C597.032 107 594.032 104 594.032 100.25V8.6C594.032 5 597.032 1.99999 600.782 1.99999H617.432C620.132 1.99999 622.682 3.34999 624.182 5.75L657.632 57.95V8.6Z" fill="#D4D4D4"/>
</svg>
