<svg width="105" height="109" viewBox="0 0 105 109" fill="none" xmlns="http://www.w3.org/2000/svg">
<path d="M0.530274 54.75C0.530274 44.25 2.63027 34.9 6.83027 26.7C11.1303 18.5 17.2303 12.15 25.1303 7.65C33.0303 3.05 42.3303 0.749995 53.0303 0.749995C62.2303 0.749995 70.4303 2.5 77.6303 6C84.9303 9.4 90.8303 14.25 95.3303 20.55C99.9303 26.85 102.98 34.2 104.48 42.6H69.3803C67.7803 39.1 65.4803 36.4 62.4803 34.5C59.5803 32.5 56.2303 31.5 52.4303 31.5C46.8303 31.5 42.3803 33.6 39.0803 37.8C35.8803 42 34.2803 47.65 34.2803 54.75C34.2803 61.85 35.8803 67.5 39.0803 71.7C42.3803 75.9 46.8303 78 52.4303 78C56.2303 78 59.5803 77.05 62.4803 75.15C65.4803 73.15 67.7803 70.4 69.3803 66.9H104.48C102.98 75.3 99.9303 82.65 95.3303 88.95C90.8303 95.25 84.9303 100.15 77.6303 103.65C70.4303 107.05 62.2303 108.75 53.0303 108.75C42.3303 108.75 33.0303 106.5 25.1303 102C17.2303 97.4 11.1303 91 6.83027 82.8C2.63027 74.6 0.530274 65.25 0.530274 54.75Z" fill="#60BF4E"/>
</svg>
